Coordinates
version=1
nRows=10
nColumns=22
inDegrees=yes

Units are S.I. units (second, meters, Newtons, ...)
If the header above contains a line with 'inDegrees', this indicates whether rotational values are in degrees (yes) or radians (no).

endheader
time	pelvis_tilt	pelvis_list	pelvis_rotation	pelvis_tx	pelvis_ty	pelvis_tz	hip_flexion_r	hip_adduction_r	hip_rotation_r	knee_angle_r	ankle_angle_r	subtalar_angle_r	hip_flexion_l	hip_adduction_l	hip_rotation_l	knee_angle_l	ankle_angle_l	subtalar_angle_l	lumbar_extension	lumbar_bending	lumbar_rotation
      0.01000000	      0.55643721	      4.34284988	    168.54311388	      0.03630156	      1.02146222	      0.87060558	      3.08686691	      7.57541593	      1.25537742	    -10.49614100	      7.44680228	     -3.77320850	      2.20047526	     -2.47887726	     -6.90095318	    -11.51400096	     11.21176969	     -2.70480341	    -10.75810642	      3.28240402	      0.69267306
      0.02000000	      0.55981536	      4.33411017	    168.54855279	      0.03627877	      1.02145953	      0.87058696	      3.09366317	      7.56705658	      1.22913190	    -10.50037239	      7.44501264	     -3.77549978	      2.20300877	     -2.47134339	     -6.90038533	    -11.51073649	     11.19825728	     -2.72633822	    -10.75252757	      3.27420511	      0.70557036
      0.03000000	      0.56093241	      4.33211925	    168.55520313	      0.03625081	      1.02146082	      0.87055831	      3.09345967	      7.56713263	      1.22977794	    -10.50140100	      7.44515384	     -3.77579974	      2.20213312	     -2.47155194	     -6.90017618	    -11.50978590	     11.19775439	     -2.72782599	    -10.75017124	      3.27399617	      0.70674874
      0.04000000	      0.56975672	      4.32520431	    168.56611576	      0.03620930	      1.02145301	      0.87053225	      3.09484545	      7.56275757	      1.21605783	    -10.48772627	      7.44708903	     -3.77868818	      2.20654867	     -2.46678867	     -6.88603984	    -11.50052542	     11.19087873	     -2.73787561	    -10.73592385	      3.27025005	      0.71289832
      0.05000000	      0.57128935	      4.32273966	    168.57554179	      0.03618522	      1.02145605	      0.87049924	      3.09535145	      7.56296887	      1.21601183	    -10.48892451	      7.44665556	     -3.77907760	      2.20655457	     -2.46699865	     -6.88578459	    -11.49827396	     11.19006050	     -2.73890875	    -10.73441083	      3.26971260	      0.71422922
      0.06000000	      0.58344566	      4.31328978	    168.59288995	      0.03613905	      1.02144524	      0.87047925	      3.09939552	      7.55593382	      1.18991148	    -10.47239378	      7.44530152	     -3.78326014	      2.21329532	     -2.45949337	     -6.86332396	    -11.48333973	     11.17790205	     -2.74642118	    -10.71410475	      3.26540542	      0.71151028
      0.07000000	      0.58493246	      4.31087321	    168.60392536	      0.03612469	      1.02144824	      0.87044792	      3.10060754	      7.55636000	      1.19022669	    -10.47424257	      7.44484532	     -3.78371451	      2.21402431	     -2.45951911	     -6.86296350	    -11.48066002	     11.17704716	     -2.74708900	    -10.71379980	      3.26505222	      0.71156658
      0.08000000	      0.59956238	      4.29942863	    168.63023144	      0.03607972	      1.02143348	      0.87044361	      3.10773437	      7.54745654	      1.15615642	    -10.45683457	      7.44397440	     -3.78943178	      2.22340421	     -2.44898271	     -6.82971198	    -11.46201838	     11.16050642	     -2.75285797	    -10.68881745	      3.26165070	      0.68671548
      0.09000000	      0.60053564	      4.29704630	    168.64142076	      0.03607713	      1.02143563	      0.87041620	      3.10907807	      7.54784603	      1.15660096	    -10.45855915	      7.44371791	     -3.78981742	      2.22458775	     -2.44867691	     -6.82952798	    -11.45977080	     11.16002947	     -2.75329489	    -10.68949534	      3.26190870	      0.68756054
      0.10000000	      0.61238869	      4.28495015	    168.67718669	      0.03605660	      1.02142008	      0.87042934	      3.12082472	      7.53773435	      1.11641934	    -10.45241805	      7.44365151	     -3.79767179	      2.23832728	     -2.43633036	     -6.77970791	    -11.45023045	     11.14141124	     -2.76015073	    -10.66919960	      3.25796037	      0.65042796
